<svg width="185" height="40" viewBox="0 0 185 40" fill="none" xmlns="http://www.w3.org/2000/svg">
<path opacity="0.5" d="M39.9903 0.270225L30.2035 36.8333C30.1538 36.9993 29.9547 37.0491 29.8386 36.9329L23.2864 30.3771L28.1964 12.0541C28.2462 11.8881 28.0969 11.7387 27.931 11.7885L9.61816 16.7012L3.09918 10.1786C2.98306 10.0624 3.03283 9.86327 3.1987 9.81348L39.7249 0.00467391C39.8908 -0.02852 40.04 0.120853 39.9903 0.270225Z" fill="#00B37E"/>
<path opacity="0.5" d="M23.2861 30.3768L20.7648 39.8371C20.715 40.0031 20.516 40.0529 20.3998 39.9367L0.0632894 19.6054C-0.0528247 19.4892 -0.0030618 19.29 0.162815 19.2402L9.61782 16.7009L23.2861 30.3768Z" fill="#00B37E"/>
<path d="M28.1956 12.0538L23.2856 30.3768L9.61732 16.7009L27.9302 11.7882C28.096 11.7384 28.2453 11.8878 28.1956 12.0538Z" fill="#00B37E"/>
<path d="M65.481 11.2266V29H61.8311V11.2266H65.481ZM77.0532 15.792H80.2393V28.5605C80.2393 29.765 79.9707 30.7863 79.4336 31.6245C78.9046 32.4709 78.1641 33.1097 77.2119 33.541C76.2598 33.9805 75.153 34.2002 73.8916 34.2002C73.3382 34.2002 72.7523 34.127 72.1338 33.9805C71.5234 33.834 70.9375 33.6061 70.376 33.2969C69.8226 32.9876 69.3587 32.597 68.9844 32.125L70.5347 30.0498C70.9416 30.5218 71.4136 30.888 71.9507 31.1484C72.4878 31.417 73.0819 31.5513 73.7329 31.5513C74.3677 31.5513 74.9048 31.4333 75.3442 31.1973C75.7837 30.9694 76.1214 30.6317 76.3574 30.1841C76.5934 29.7446 76.7114 29.2116 76.7114 28.585V18.8438L77.0532 15.792ZM68.1665 22.5547V22.2983C68.1665 21.2892 68.2886 20.3737 68.5327 19.5518C68.785 18.7217 69.139 18.0096 69.5947 17.4155C70.0586 16.8215 70.6201 16.3617 71.2793 16.0361C71.9385 15.7106 72.6831 15.5479 73.5132 15.5479C74.3921 15.5479 75.1286 15.7106 75.7227 16.0361C76.3167 16.3617 76.805 16.8255 77.1875 17.4277C77.57 18.0218 77.867 18.7257 78.0786 19.5396C78.2983 20.3452 78.4692 21.2282 78.5913 22.1885V22.75C78.4692 23.6696 78.2861 24.5241 78.042 25.3135C77.7979 26.1029 77.4764 26.7946 77.0776 27.3887C76.6789 27.9746 76.1825 28.4303 75.5884 28.7559C75.0024 29.0814 74.3026 29.2441 73.4888 29.2441C72.675 29.2441 71.9385 29.0773 71.2793 28.7437C70.6283 28.41 70.0708 27.9421 69.6069 27.3398C69.1431 26.7376 68.785 26.0296 68.5327 25.2158C68.2886 24.402 68.1665 23.515 68.1665 22.5547ZM71.6821 22.2983V22.5547C71.6821 23.0999 71.735 23.6086 71.8408 24.0806C71.9466 24.5526 72.1094 24.9717 72.3291 25.3379C72.557 25.696 72.8377 25.9767 73.1714 26.1802C73.5132 26.3755 73.916 26.4731 74.3799 26.4731C75.0228 26.4731 75.5477 26.3389 75.9546 26.0703C76.3615 25.7936 76.6667 25.4152 76.8701 24.9351C77.0736 24.4549 77.1916 23.9015 77.2241 23.2749V21.6758C77.2078 21.1631 77.1387 20.7033 77.0166 20.2964C76.8945 19.8813 76.7236 19.5273 76.5039 19.2344C76.2842 18.9414 75.9993 18.7135 75.6494 18.5508C75.2995 18.388 74.8844 18.3066 74.4043 18.3066C73.9404 18.3066 73.5376 18.4124 73.1958 18.624C72.8621 18.8275 72.5814 19.1082 72.3535 19.4663C72.1338 19.8244 71.967 20.2476 71.853 20.7358C71.7391 21.216 71.6821 21.7368 71.6821 22.2983ZM86.416 18.6118V29H82.9004V15.792H86.1963L86.416 18.6118ZM85.9033 21.9321H84.9512C84.9512 20.9556 85.0773 20.0767 85.3296 19.2954C85.5819 18.506 85.9359 17.8346 86.3916 17.2812C86.8473 16.7197 87.3885 16.2925 88.0151 15.9995C88.6499 15.6984 89.3579 15.5479 90.1392 15.5479C90.7576 15.5479 91.3232 15.6374 91.8359 15.8164C92.3486 15.9954 92.7881 16.2803 93.1543 16.6709C93.5286 17.0615 93.8135 17.5783 94.0088 18.2212C94.2122 18.8641 94.314 19.6494 94.314 20.5771V29H90.7739V20.5649C90.7739 19.979 90.6925 19.5233 90.5298 19.1978C90.367 18.8722 90.127 18.6444 89.8096 18.5142C89.5003 18.3758 89.1178 18.3066 88.6621 18.3066C88.1901 18.3066 87.7791 18.4002 87.4292 18.5874C87.0874 18.7746 86.8026 19.035 86.5747 19.3687C86.355 19.6942 86.1882 20.0767 86.0742 20.5161C85.9603 20.9556 85.9033 21.4276 85.9033 21.9321ZM100.698 15.792V29H97.1704V15.792H100.698ZM96.9507 12.3496C96.9507 11.8369 97.1297 11.4137 97.4878 11.0801C97.8459 10.7464 98.326 10.5796 98.9282 10.5796C99.5223 10.5796 99.9984 10.7464 100.356 11.0801C100.723 11.4137 100.906 11.8369 100.906 12.3496C100.906 12.8623 100.723 13.2855 100.356 13.6191C99.9984 13.9528 99.5223 14.1196 98.9282 14.1196C98.326 14.1196 97.8459 13.9528 97.4878 13.6191C97.1297 13.2855 96.9507 12.8623 96.9507 12.3496ZM110.073 15.792V18.2822H102.383V15.792H110.073ZM104.287 12.5327H107.803V25.0205C107.803 25.403 107.852 25.696 107.949 25.8994C108.055 26.1029 108.21 26.2453 108.413 26.3267C108.617 26.3999 108.873 26.4365 109.182 26.4365C109.402 26.4365 109.597 26.4284 109.768 26.4121C109.947 26.3877 110.098 26.3633 110.22 26.3389L110.232 28.9268C109.931 29.0244 109.605 29.1017 109.255 29.1587C108.905 29.2157 108.519 29.2441 108.096 29.2441C107.323 29.2441 106.647 29.118 106.069 28.8657C105.5 28.6053 105.06 28.1903 104.751 27.6206C104.442 27.0509 104.287 26.3022 104.287 25.3745V12.5327ZM118.154 29.2441C117.129 29.2441 116.209 29.0814 115.396 28.7559C114.582 28.4222 113.89 27.9624 113.32 27.3765C112.759 26.7905 112.327 26.111 112.026 25.3379C111.725 24.5566 111.575 23.7266 111.575 22.8477V22.3594C111.575 21.3584 111.717 20.4429 112.002 19.6128C112.287 18.7827 112.694 18.0625 113.223 17.4521C113.76 16.8418 114.411 16.3739 115.176 16.0483C115.941 15.7147 116.803 15.5479 117.764 15.5479C118.7 15.5479 119.53 15.7025 120.254 16.0117C120.978 16.321 121.584 16.7604 122.073 17.3301C122.569 17.8997 122.944 18.5833 123.196 19.3809C123.448 20.1702 123.574 21.0492 123.574 22.0176V23.4824H113.076V21.1387H120.12V20.8701C120.12 20.3818 120.03 19.9465 119.851 19.564C119.68 19.1733 119.42 18.8641 119.07 18.6362C118.72 18.4084 118.272 18.2944 117.727 18.2944C117.263 18.2944 116.864 18.3962 116.531 18.5996C116.197 18.8031 115.924 19.0879 115.713 19.4541C115.509 19.8203 115.355 20.2516 115.249 20.748C115.151 21.2363 115.103 21.7734 115.103 22.3594V22.8477C115.103 23.3766 115.176 23.8649 115.322 24.3125C115.477 24.7601 115.693 25.1466 115.969 25.4722C116.254 25.7977 116.596 26.05 116.995 26.229C117.402 26.408 117.861 26.4976 118.374 26.4976C119.009 26.4976 119.599 26.3755 120.144 26.1313C120.697 25.8791 121.174 25.5007 121.572 24.9961L123.281 26.8516C123.005 27.2503 122.626 27.6328 122.146 27.999C121.674 28.3652 121.104 28.6663 120.437 28.9023C119.77 29.1302 119.009 29.2441 118.154 29.2441ZM135.684 11.2266V29H132.021V11.2266H135.684ZM142.764 18.8193V21.6758H134.683V18.8193H142.764ZM143.618 11.2266V14.0952H134.683V11.2266H143.618ZM151.333 29.2441C150.308 29.2441 149.388 29.0814 148.574 28.7559C147.76 28.4222 147.069 27.9624 146.499 27.3765C145.938 26.7905 145.506 26.111 145.205 25.3379C144.904 24.5566 144.753 23.7266 144.753 22.8477V22.3594C144.753 21.3584 144.896 20.4429 145.181 19.6128C145.465 18.7827 145.872 18.0625 146.401 17.4521C146.938 16.8418 147.59 16.3739 148.354 16.0483C149.119 15.7147 149.982 15.5479 150.942 15.5479C151.878 15.5479 152.708 15.7025 153.433 16.0117C154.157 16.321 154.763 16.7604 155.251 17.3301C155.748 17.8997 156.122 18.5833 156.375 19.3809C156.627 20.1702 156.753 21.0492 156.753 22.0176V23.4824H146.255V21.1387H153.298V20.8701C153.298 20.3818 153.209 19.9465 153.03 19.564C152.859 19.1733 152.598 18.8641 152.249 18.6362C151.899 18.4084 151.451 18.2944 150.906 18.2944C150.442 18.2944 150.043 18.3962 149.709 18.5996C149.376 18.8031 149.103 19.0879 148.892 19.4541C148.688 19.8203 148.534 20.2516 148.428 20.748C148.33 21.2363 148.281 21.7734 148.281 22.3594V22.8477C148.281 23.3766 148.354 23.8649 148.501 24.3125C148.656 24.7601 148.871 25.1466 149.148 25.4722C149.433 25.7977 149.775 26.05 150.173 26.229C150.58 26.408 151.04 26.4976 151.553 26.4976C152.188 26.4976 152.778 26.3755 153.323 26.1313C153.876 25.8791 154.352 25.5007 154.751 24.9961L156.46 26.8516C156.183 27.2503 155.805 27.6328 155.325 27.999C154.853 28.3652 154.283 28.6663 153.616 28.9023C152.948 29.1302 152.188 29.2441 151.333 29.2441ZM164.834 29.2441C163.809 29.2441 162.889 29.0814 162.075 28.7559C161.261 28.4222 160.57 27.9624 160 27.3765C159.438 26.7905 159.007 26.111 158.706 25.3379C158.405 24.5566 158.254 23.7266 158.254 22.8477V22.3594C158.254 21.3584 158.397 20.4429 158.682 19.6128C158.966 18.7827 159.373 18.0625 159.902 17.4521C160.439 16.8418 161.09 16.3739 161.855 16.0483C162.62 15.7147 163.483 15.5479 164.443 15.5479C165.379 15.5479 166.209 15.7025 166.934 16.0117C167.658 16.321 168.264 16.7604 168.752 17.3301C169.249 17.8997 169.623 18.5833 169.875 19.3809C170.128 20.1702 170.254 21.0492 170.254 22.0176V23.4824H159.756V21.1387H166.799V20.8701C166.799 20.3818 166.71 19.9465 166.531 19.564C166.36 19.1733 166.099 18.8641 165.75 18.6362C165.4 18.4084 164.952 18.2944 164.407 18.2944C163.943 18.2944 163.544 18.3962 163.21 18.5996C162.877 18.8031 162.604 19.0879 162.393 19.4541C162.189 19.8203 162.035 20.2516 161.929 20.748C161.831 21.2363 161.782 21.7734 161.782 22.3594V22.8477C161.782 23.3766 161.855 23.8649 162.002 24.3125C162.157 24.7601 162.372 25.1466 162.649 25.4722C162.934 25.7977 163.276 26.05 163.674 26.229C164.081 26.408 164.541 26.4976 165.054 26.4976C165.688 26.4976 166.278 26.3755 166.824 26.1313C167.377 25.8791 167.853 25.5007 168.252 24.9961L169.961 26.8516C169.684 27.2503 169.306 27.6328 168.826 27.999C168.354 28.3652 167.784 28.6663 167.117 28.9023C166.449 29.1302 165.688 29.2441 164.834 29.2441ZM180.056 26.1191V10.25H183.596V29H180.41L180.056 26.1191ZM171.707 22.5547V22.2983C171.707 21.2892 171.82 20.3737 172.048 19.5518C172.276 18.7217 172.61 18.0096 173.049 17.4155C173.489 16.8215 174.03 16.3617 174.673 16.0361C175.316 15.7106 176.048 15.5479 176.87 15.5479C177.643 15.5479 178.319 15.7106 178.896 16.0361C179.482 16.3617 179.979 16.8255 180.386 17.4277C180.801 18.0218 181.134 18.7257 181.387 19.5396C181.639 20.3452 181.822 21.2282 181.936 22.1885V22.75C181.822 23.6696 181.639 24.5241 181.387 25.3135C181.134 26.1029 180.801 26.7946 180.386 27.3887C179.979 27.9746 179.482 28.4303 178.896 28.7559C178.311 29.0814 177.627 29.2441 176.846 29.2441C176.024 29.2441 175.291 29.0773 174.648 28.7437C174.014 28.41 173.477 27.9421 173.037 27.3398C172.606 26.7376 172.276 26.0296 172.048 25.2158C171.82 24.402 171.707 23.515 171.707 22.5547ZM175.222 22.2983V22.5547C175.222 23.0999 175.263 23.6086 175.344 24.0806C175.434 24.5526 175.576 24.9717 175.771 25.3379C175.975 25.696 176.235 25.9767 176.553 26.1802C176.878 26.3755 177.273 26.4731 177.737 26.4731C178.339 26.4731 178.835 26.3389 179.226 26.0703C179.617 25.7936 179.914 25.4152 180.117 24.9351C180.329 24.4549 180.451 23.9015 180.483 23.2749V21.6758C180.459 21.1631 180.386 20.7033 180.264 20.2964C180.15 19.8813 179.979 19.5273 179.751 19.2344C179.531 18.9414 179.255 18.7135 178.921 18.5508C178.595 18.388 178.209 18.3066 177.761 18.3066C177.306 18.3066 176.915 18.4124 176.589 18.624C176.264 18.8275 175.999 19.1082 175.796 19.4663C175.601 19.8244 175.454 20.2476 175.356 20.7358C175.267 21.216 175.222 21.7368 175.222 22.2983Z" fill="#E1E1E6"/>
</svg>
